<svg xmlns="http://www.w3.org/2000/svg" width="944" height="283" fill="none" viewBox="0 0 944 283"><g style="mix-blend-mode:overlay" opacity=".8"><rect width="1145" height="8" x="246" fill="#fff" style="fill:#fff;fill-opacity:1"/><rect width="1177" height="8" x="234" y="11" fill="#fff" style="fill:#fff;fill-opacity:1"/><rect width="1190" height="8" x="221" y="22" fill="#fff" style="fill:#fff;fill-opacity:1"/><rect width="1198" height="8" x="213" y="33" fill="#fff" style="fill:#fff;fill-opacity:1"/><rect width="1188" height="8" x="203" y="44" fill="#fff" style="fill:#fff;fill-opacity:1"/><rect width="1194" height="8" x="191" y="55" fill="#fff" style="fill:#fff;fill-opacity:1"/><rect width="1193" height="8" x="180" y="66" fill="#fff" style="fill:#fff;fill-opacity:1"/><rect width="1191" height="8" x="169" y="77" fill="#fff" style="fill:#fff;fill-opacity:1"/><rect width="1196" height="8" x="158" y="88" fill="#fff" style="fill:#fff;fill-opacity:1"/><rect width="1194" height="8" x="147" y="99" fill="#fff" style="fill:#fff;fill-opacity:1"/><rect width="1193" height="8" x="136" y="110" fill="#fff" style="fill:#fff;fill-opacity:1"/><rect width="1196" height="8" x="126" y="121" fill="#fff" style="fill:#fff;fill-opacity:1"/><rect width="1197" height="8" x="114" y="132" fill="#fff" style="fill:#fff;fill-opacity:1"/><rect width="1194" height="8" x="102" y="143" fill="#fff" style="fill:#fff;fill-opacity:1"/><rect width="1194" height="8" x="91" y="154" fill="#fff" style="fill:#fff;fill-opacity:1"/><rect width="1197" height="8" x="81" y="165" fill="#fff" style="fill:#fff;fill-opacity:1"/><rect width="1193" height="8" x="71" y="176" fill="#fff" style="fill:#fff;fill-opacity:1"/><rect width="1194" height="8" x="59" y="187" fill="#fff" style="fill:#fff;fill-opacity:1"/><rect width="1198" height="8" x="48" y="198" fill="#fff" style="fill:#fff;fill-opacity:1"/><rect width="1196" height="8" x="37" y="209" fill="#fff" style="fill:#fff;fill-opacity:1"/><rect width="1195" height="8" x="26" y="220" fill="#fff" style="fill:#fff;fill-opacity:1"/><rect width="1194" height="8" x="15" y="231" fill="#fff" style="fill:#fff;fill-opacity:1"/><rect width="1195" height="8" x="1" y="242" fill="#fff" style="fill:#fff;fill-opacity:1"/><rect width="1189" height="8" x="1" y="253" fill="#fff" style="fill:#fff;fill-opacity:1"/><rect width="1175" height="8" x="1" y="264" fill="#fff" style="fill:#fff;fill-opacity:1"/><rect width="1149" height="8" x="15" y="275" fill="#fff" style="fill:#fff;fill-opacity:1"/></g></svg>