<svg xmlns="http://www.w3.org/2000/svg" width="395" height="80" fill="none" viewBox="0 0 395 80"><g style="mix-blend-mode:overlay" opacity=".71"><rect width="320.327" height="2.238" fill="#fff" transform="matrix(1 0 0 -1 68.8214 79.1726)" style="fill:#fff;fill-opacity:1"/><rect width="329.28" height="2.238" fill="#fff" transform="matrix(1 0 0 -1 65.4643 76.0952)" style="fill:#fff;fill-opacity:1"/><rect width="332.917" height="2.238" fill="#fff" transform="matrix(1 0 0 -1 61.8274 73.0178)" style="fill:#fff;fill-opacity:1"/><rect width="335.155" height="2.238" fill="#fff" transform="matrix(1 0 0 -1 59.5893 69.9404)" style="fill:#fff;fill-opacity:1"/><rect width="332.357" height="2.238" fill="#fff" transform="matrix(1 0 0 -1 56.7917 66.863)" style="fill:#fff;fill-opacity:1"/><rect width="334.036" height="2.238" fill="#fff" transform="matrix(1 0 0 -1 53.4345 63.7856)" style="fill:#fff;fill-opacity:1"/><rect width="333.756" height="2.238" fill="#fff" transform="matrix(1 0 0 -1 50.3571 60.7083)" style="fill:#fff;fill-opacity:1"/><rect width="333.196" height="2.238" fill="#fff" transform="matrix(1 0 0 -1 47.2798 57.6309)" style="fill:#fff;fill-opacity:1"/><rect width="334.595" height="2.238" fill="#fff" transform="matrix(1 0 0 -1 44.2024 54.5535)" style="fill:#fff;fill-opacity:1"/><rect width="334.036" height="2.238" fill="#fff" transform="matrix(1 0 0 -1 41.125 51.4761)" style="fill:#fff;fill-opacity:1"/><rect width="333.756" height="2.238" fill="#fff" transform="matrix(1 0 0 -1 38.0476 48.3987)" style="fill:#fff;fill-opacity:1"/><rect width="334.595" height="2.238" fill="#fff" transform="matrix(1 0 0 -1 35.25 45.3215)" style="fill:#fff;fill-opacity:1"/><rect width="334.875" height="2.238" fill="#fff" transform="matrix(1 0 0 -1 31.8929 42.2441)" style="fill:#fff;fill-opacity:1"/><rect width="334.036" height="2.238" fill="#fff" transform="matrix(1 0 0 -1 28.5357 39.1667)" style="fill:#fff;fill-opacity:1"/><rect width="334.036" height="2.238" fill="#fff" transform="matrix(1 0 0 -1 25.4583 36.0894)" style="fill:#fff;fill-opacity:1"/><rect width="334.875" height="2.238" fill="#fff" transform="matrix(1 0 0 -1 22.6607 33.012)" style="fill:#fff;fill-opacity:1"/><rect width="333.756" height="2.238" fill="#fff" transform="matrix(1 0 0 -1 19.8631 29.9346)" style="fill:#fff;fill-opacity:1"/><rect width="334.036" height="2.238" fill="#fff" transform="matrix(1 0 0 -1 16.506 26.8572)" style="fill:#fff;fill-opacity:1"/><rect width="335.155" height="2.238" fill="#fff" transform="matrix(1 0 0 -1 13.4286 23.7798)" style="fill:#fff;fill-opacity:1"/><rect width="334.595" height="2.238" fill="#fff" transform="matrix(1 0 0 -1 10.3512 20.7024)" style="fill:#fff;fill-opacity:1"/><rect width="334.315" height="2.238" fill="#fff" transform="matrix(1 0 0 -1 7.2738 17.625)" style="fill:#fff;fill-opacity:1"/><rect width="334.036" height="2.238" fill="#fff" transform="matrix(1 0 0 -1 4.19644 14.5476)" style="fill:#fff;fill-opacity:1"/><rect width="334.315" height="2.238" fill="#fff" transform="matrix(1 0 0 -1 0.279755 11.4702)" style="fill:#fff;fill-opacity:1"/><rect width="332.637" height="2.238" fill="#fff" transform="matrix(1 0 0 -1 0.279755 8.39282)" style="fill:#fff;fill-opacity:1"/><rect width="328.72" height="2.238" fill="#fff" transform="matrix(1 0 0 -1 0.279755 5.31543)" style="fill:#fff;fill-opacity:1"/><rect width="321.446" height="2.238" fill="#fff" transform="matrix(1 0 0 -1 4.19644 2.23804)" style="fill:#fff;fill-opacity:1"/></g></svg>