<svg xmlns="http://www.w3.org/2000/svg" xmlns:xlink="http://www.w3.org/1999/xlink" width="2016" height="1452" version="1.1" viewBox="-1472 1431 2016 1452"><defs><style>@font-face{font-family:&quot;DIN Next&quot;;font-weight:400;src:url(https://whimsical.com/fonts/139e8e25-0eea-4cb4-a5d4-79048803e73d.eot?#iefix);src:url(https://whimsical.com/fonts/139e8e25-0eea-4cb4-a5d4-79048803e73d.eot?#iefix) format(&quot;eot&quot;),url(https://whimsical.com/fonts/094b15e3-94bd-435b-a595-d40edfde661a.woff2) format(&quot;woff2&quot;),url(https://whimsical.com/fonts/7e5fbe11-4858-4bd1-9ec6-a1d9f9d227aa.woff) format(&quot;woff&quot;),url(https://whimsical.com/fonts/0f11eff9-9f05-46f5-9703-027c510065d7.ttf) format(&quot;truetype&quot;),url(https://whimsical.com/fonts/48b61978-3f30-4274-823c-5cdcd1876918.svg#48b61978-3f30-4274-823c-5cdcd1876918) format(&quot;svg&quot;)}@font-face{font-family:&quot;DIN Next&quot;;font-weight:400;font-style:italic;src:url(https://whimsical.com/fonts/df24d5e8-5087-42fd-99b1-b16042d666c8.eot?#iefix);src:url(https://whimsical.com/fonts/df24d5e8-5087-42fd-99b1-b16042d666c8.eot?#iefix) format(&quot;eot&quot;),url(https://whimsical.com/fonts/46251881-ffe9-4bfb-99c7-d6ce3bebaf3e.woff2) format(&quot;woff2&quot;),url(https://whimsical.com/fonts/790ebbf2-62c5-4a32-946f-99d405f9243e.woff) format(&quot;woff&quot;),url(https://whimsical.com/fonts/d28199e6-0f4a-42df-97f4-606701c6f75a.ttf) format(&quot;truetype&quot;),url(https://whimsical.com/fonts/37a462c0-d86e-492c-b9ab-35e6bd417f6c.svg#37a462c0-d86e-492c-b9ab-35e6bd417f6c) format(&quot;svg&quot;)}@font-face{font-weight:500;font-family:&quot;DIN Next&quot;;src:url(https://whimsical.com/fonts/c5b058fc-55ce-4e06-a175-5c7d9a7e90f4.eot?#iefix);src:url(https://whimsical.com/fonts/c5b058fc-55ce-4e06-a175-5c7d9a7e90f4.eot?#iefix) format(&quot;eot&quot;),url(https://whimsical.com/fonts/7b29ae40-30ff-4f99-a2b9-cde88669fa2f.woff2) format(&quot;woff2&quot;),url(https://whimsical.com/fonts/bf73077c-e354-4562-a085-f4703eb1d653.woff) format(&quot;woff&quot;),url(https://whimsical.com/fonts/0ffa6947-5317-4d07-b525-14d08a028821.ttf) format(&quot;truetype&quot;),url(https://whimsical.com/fonts/9e423e45-5450-4991-a157-dbe6cf61eb4e.svg#9e423e45-5450-4991-a157-dbe6cf61eb4e) format(&quot;svg&quot;)}@font-face{font-family:&quot;DIN Next&quot;;font-weight:500;font-style:italic;src:url(https://whimsical.com/fonts/9897c008-fd65-48a4-afc7-36de2fea97b9.eot?#iefix);src:url(https://whimsical.com/fonts/9897c008-fd65-48a4-afc7-36de2fea97b9.eot?#iefix) format(&quot;eot&quot;),url(https://whimsical.com/fonts/c7717981-647d-4b76-8817-33062e42d11f.woff2) format(&quot;woff2&quot;),url(https://whimsical.com/fonts/b852cd4c-1255-40b1-a2be-73a9105b0155.woff) format(&quot;woff&quot;),url(https://whimsical.com/fonts/821b00ad-e741-4e2d-af1a-85594367c8a2.ttf) format(&quot;truetype&quot;),url(https://whimsical.com/fonts/d3e3b689-a6b0-45f2-b279-f5e194f87409.svg#d3e3b689-a6b0-45f2-b279-f5e194f87409) format(&quot;svg&quot;)}@font-face{font-weight:700;font-family:&quot;DIN Next&quot;;src:url(https://whimsical.com/fonts/81cd3b08-fd39-4ae3-8d05-9d24709eba84.eot?#iefix);src:url(https://whimsical.com/fonts/81cd3b08-fd39-4ae3-8d05-9d24709eba84.eot?#iefix) format(&quot;eot&quot;),url(https://whimsical.com/fonts/31704504-4671-47a6-a61e-397f07410d91.woff2) format(&quot;woff2&quot;),url(https://whimsical.com/fonts/b8a280da-481f-44a0-8d9c-1bc64bd7227c.woff) format(&quot;woff&quot;),url(https://whimsical.com/fonts/276d122a-0fab-447b-9fc0-5d7fb0eafce2.ttf) format(&quot;truetype&quot;),url(https://whimsical.com/fonts/8fb8273a-8213-4928-808b-b5bfaf3fd7e9.svg#8fb8273a-8213-4928-808b-b5bfaf3fd7e9) format(&quot;svg&quot;)}@font-face{font-family:&quot;DIN Next&quot;;font-weight:700;font-style:italic;src:url(https://whimsical.com/fonts/00cc6df3-ed32-4004-8dd8-1c576600a408.eot?#iefix);src:url(https://whimsical.com/fonts/00cc6df3-ed32-4004-8dd8-1c576600a408.eot?#iefix) format(&quot;eot&quot;),url(https://whimsical.com/fonts/4132c4c8-680c-4d6d-9251-a2da38503bbd.woff2) format(&quot;woff2&quot;),url(https://whimsical.com/fonts/366401fe-6df4-47be-8f55-8a411cff0dd2.woff) format(&quot;woff&quot;),url(https://whimsical.com/fonts/dbe4f7ba-fc16-44a6-a577-571620e9edaf.ttf) format(&quot;truetype&quot;),url(https://whimsical.com/fonts/f874edca-ee87-4ccf-8b1d-921fbc3c1c36.svg#f874edca-ee87-4ccf-8b1d-921fbc3c1c36) format(&quot;svg&quot;)}@font-face{font-family:&apos;PFDINMonoPro&apos;;src:url(https://whimsical.com/fonts/PFDINMonoPro-Regular.woff) format(&apos;woff&apos;);font-weight:400}@font-face{font-family:&apos;PFDINMonoPro&apos;;src:url(https://whimsical.com/fonts/PFDINMonoPro-Italic.woff) format(&apos;woff&apos;);font-style:italic;font-weight:400}@font-face{font-family:&apos;PFDINMonoPro&apos;;src:url(https://whimsical.com/fonts/PFDINMonoPro-Bold.woff) format(&apos;woff&apos;);font-weight:700}@font-face{font-family:&apos;PFDINMonoPro&apos;;src:url(https://whimsical.com/fonts/PFDINMonoPro-BoldItalic.woff) format(&apos;woff&apos;);font-style:italic;font-weight:700}*{-webkit-font-smoothing:auto;-moz-osx-font-smoothing:auto}@media print{svg{width:100%;height:100%}}</style><g><filter id="white-fill-shadow"><feDropShadow dx="0" dy="2" flood-color="#000" flood-opacity=".03" stdDeviation="6"/></filter><filter id="light-gray-fill-shadow"><feDropShadow dx="0" dy="2" flood-color="#000" flood-opacity=".09" stdDeviation="6"/></filter><filter id="yellow-fill-shadow"><feDropShadow dx="0" dy="2" flood-color="#000" flood-opacity=".12" stdDeviation="6"/></filter><filter id="fill-shadow"><feDropShadow dx="0" dy="2" flood-color="#000" flood-opacity=".16" stdDeviation="6"/></filter><filter id="frame-shadow"><feDropShadow dx="0" dy="3" flood-color="#000" flood-opacity=".06" stdDeviation="8"/></filter><filter id="button-shadow"><feDropShadow dx="0" dy="2" flood-color="#000" flood-opacity=".03" stdDeviation="6"/></filter><filter id="button-hover-shadow"><feDropShadow dx="0" dy="2" flood-color="#000" flood-opacity=".08" stdDeviation="6"/></filter><filter id="badge-shadow"><feDropShadow dx="0" dy="2" flood-color="#000" flood-opacity=".08" stdDeviation="6"/></filter></g></defs><g><rect width="2016" height="1452" x="-1472" y="1431" fill="#FFF" filter="url(#white-fill-shadow)" rx="3" ry="3"/><g><rect width="2016" height="1452" x="-1472" y="1431" fill="#FFF" rx="3" ry="3"/></g><g><g><g class="content"><g><g><g><g><text fill="#293845"><tspan x="-648" y="2349.5" font-family="DIN Next, sans-serif" font-size="36" font-style="normal" font-weight="normal">Ed25519 curve</tspan></text></g></g></g></g></g></g><g><g><g><g><rect width="290.5" height="97.5" x="-999" y="2490" fill="#fae6d8" stroke="#E8833A" stroke-width="2"/></g><g><g><g class="content"><g><g><g><g><text fill="#293845"><tspan x="-949" y="2564.5" font-family="DIN Next, sans-serif" font-size="18" font-style="normal" font-weight="normal">($) 14,000</tspan></text></g></g></g></g></g></g><g><g><g transform="translate(-991.5 2522.5) rotate(0 18 18)"><svg id="sa1ac4f4f-9b75-4957-bfc0-f02fb390d2d9" width="36" height="36" data-icon-color="#E8833A" data-icon-name="pig" data-icon-partition="g48-7" viewBox="0 0 48 48"><style>#sa1ac4f4f-9b75-4957-bfc0-f02fb390d2d9 [fill=&apos;#444&apos;],#sa1ac4f4f-9b75-4957-bfc0-f02fb390d2d9 [fill=&apos;#444444&apos;]{fill:#e8833a}#sa1ac4f4f-9b75-4957-bfc0-f02fb390d2d9 [stroke=&apos;#444&apos;],#sa1ac4f4f-9b75-4957-bfc0-f02fb390d2d9 [stroke=&apos;#444444&apos;]{stroke:#e8833a}</style><g><circle cx="28" cy="6" r="5" fill="#444" data-color="color-2"/><path fill="#444" d="M33.5,15H19.638c-2.363-4.709-6.844-4.668-8.961-3.946c-0.504,0.172-0.785,0.709-0.639,1.221l1.52,5.319 C9.667,18.978,8.143,20.86,7.182,23H2c-0.552,0-1,0.447-1,1v10c0,0.553,0.448,1,1,1h5.682c1.598,2.901,4.213,5.125,7.318,6.228V46 c0,0.553,0.448,1,1,1h6c0.552,0,1-0.447,1-1v-4h7v4c0,0.553,0.448,1,1,1h6c0.552,0,1-0.447,1-1v-4.778c5.335-1.89,9-7.017,9-12.722 C47,21.056,40.944,15,33.5,15z M15,27c-1.103,0-2-0.897-2-2s0.897-2,2-2s2,0.897,2,2S16.103,27,15,27z M32,23h-8 c-0.552,0-1-0.447-1-1s0.448-1,1-1h8c0.552,0,1,0.447,1,1S32.552,23,32,23z"/></g></svg></g></g></g><g><g class="content"><g><g><g><g><text fill="#293845"><tspan x="-949" y="2513.5" font-family="DIN Next, sans-serif" font-size="18" font-style="normal" font-weight="normal">Alice’s USDC</tspan></text></g></g></g></g><g><g><g><g><text fill="#293845"><tspan x="-949" y="2537.5" font-family="DIN Next, sans-serif" font-size="18" font-style="normal" font-weight="normal">Associated Token Account</tspan></text></g></g></g></g></g></g></g></g><g><g class="content"><g><g><g><g><text fill="#293845"><tspan x="-998" y="2481.5" font-family="DIN Next, sans-serif" font-size="18" font-style="normal" font-weight="normal">PROGRAM DERIVED ADDRESS</tspan></text></g></g></g></g></g></g></g></g><g><g><g><g><rect width="240" height="104.5" x="-304" y="2408" fill="#f2d6f6" stroke="#BD34D1" stroke-width="2"/></g></g><g><g class="content"><g><g><g><g><text fill="#293845"><tspan x="-239" y="2485.5" font-family="DIN Next, sans-serif" font-size="27" font-style="normal" font-weight="normal">◎27 SOL</tspan></text></g></g></g></g></g></g><g><g class="content"><g><g><g><g><text fill="#293845"><tspan x="-287" y="2442.5" font-family="DIN Next, sans-serif" font-size="18" font-style="normal" font-weight="normal">Bob’s wallet</tspan></text></g></g></g></g></g></g><g><g><g transform="translate(-292 2458) rotate(0 18 18)"><svg id="scab929d5-ef91-4948-9985-665f7ca034f6" width="36" height="36" data-icon-color="#BD34D1" data-icon-name="single-02" data-icon-partition="g48-8" viewBox="0 0 48 48"><style>#scab929d5-ef91-4948-9985-665f7ca034f6 [fill=&apos;#444&apos;],#scab929d5-ef91-4948-9985-665f7ca034f6 [fill=&apos;#444444&apos;]{fill:#bd34d1}#scab929d5-ef91-4948-9985-665f7ca034f6 [stroke=&apos;#444&apos;],#scab929d5-ef91-4948-9985-665f7ca034f6 [stroke=&apos;#444444&apos;]{stroke:#bd34d1}</style><g><path fill="#444" d="M30,29H18c-7.168,0-13,5.832-13,13v2c0,0.435,0.281,0.82,0.695,0.953 C5.957,45.036,12.229,47,24,47s18.043-1.964,18.305-2.047C42.719,44.82,43,44.435,43,44v-2C43,34.832,37.168,29,30,29z"/><path fill="#444" d="M24,25c6.195,0,11-6.988,11-13c0-6.065-4.935-11-11-11S13,5.935,13,12C13,18.012,17.805,25,24,25z" data-color="color-2"/></g></svg></g></g></g></g></g><g><g><path fill="none" stroke="#C3CFD9" stroke-linecap="round" stroke-linejoin="round" stroke-width="4" d="M-973,2005l0,173M-973,2206v170"/><polygon fill="#C3CFD9" stroke="#C3CFD9" stroke-linecap="round" stroke-linejoin="round" stroke-width="2" points="-967.459 2372.908 -973 2380 -978.541 2372.908"/><text width="37" height="24" x="-991.5" y="2180" fill="#788896" font-family="DIN Next, sans-serif" font-size="18" font-style="normal" font-weight="normal" xml:space="preserve"><tspan x="-973" y="2198" text-anchor="middle" style="white-space:pre">seed</tspan></text></g></g><g><g><g><g><rect width="290.5" height="97.5" x="-292" y="2754" fill="#fae6d8" stroke="#E8833A" stroke-width="2"/></g><g><g><g class="content"><g><g><g><g><text fill="#293845"><tspan x="-242" y="2828.5" font-family="DIN Next, sans-serif" font-size="18" font-style="normal" font-weight="normal">($) 23,430</tspan></text></g></g></g></g></g></g><g><g><g transform="translate(-284.5 2786.5) rotate(0 18 18)"><svg id="s70a7316a-297c-4893-8522-478d1a29edba" width="36" height="36" data-icon-color="#E8833A" data-icon-name="pig" data-icon-partition="g48-7" viewBox="0 0 48 48"><style>#s70a7316a-297c-4893-8522-478d1a29edba [fill=&apos;#444&apos;],#s70a7316a-297c-4893-8522-478d1a29edba [fill=&apos;#444444&apos;]{fill:#e8833a}#s70a7316a-297c-4893-8522-478d1a29edba [stroke=&apos;#444&apos;],#s70a7316a-297c-4893-8522-478d1a29edba [stroke=&apos;#444444&apos;]{stroke:#e8833a}</style><g><circle cx="28" cy="6" r="5" fill="#444" data-color="color-2"/><path fill="#444" d="M33.5,15H19.638c-2.363-4.709-6.844-4.668-8.961-3.946c-0.504,0.172-0.785,0.709-0.639,1.221l1.52,5.319 C9.667,18.978,8.143,20.86,7.182,23H2c-0.552,0-1,0.447-1,1v10c0,0.553,0.448,1,1,1h5.682c1.598,2.901,4.213,5.125,7.318,6.228V46 c0,0.553,0.448,1,1,1h6c0.552,0,1-0.447,1-1v-4h7v4c0,0.553,0.448,1,1,1h6c0.552,0,1-0.447,1-1v-4.778c5.335-1.89,9-7.017,9-12.722 C47,21.056,40.944,15,33.5,15z M15,27c-1.103,0-2-0.897-2-2s0.897-2,2-2s2,0.897,2,2S16.103,27,15,27z M32,23h-8 c-0.552,0-1-0.447-1-1s0.448-1,1-1h8c0.552,0,1,0.447,1,1S32.552,23,32,23z"/></g></svg></g></g></g><g><g class="content"><g><g><g><g><text fill="#293845"><tspan x="-242" y="2777.5" font-family="DIN Next, sans-serif" font-size="18" font-style="normal" font-weight="normal">Bob’s USDC</tspan></text></g></g></g></g><g><g><g><g><text fill="#293845"><tspan x="-242" y="2801.5" font-family="DIN Next, sans-serif" font-size="18" font-style="normal" font-weight="normal">Associated Token Account</tspan></text></g></g></g></g></g></g></g></g><g><g class="content"><g><g><g><g><text fill="#293845"><tspan x="-291" y="2745.5" font-family="DIN Next, sans-serif" font-size="18" font-style="normal" font-weight="normal">PROGRAM DERIVED ADDRESS</tspan></text></g></g></g></g></g></g></g></g><g><g><path fill="none" stroke="#C3CFD9" stroke-linecap="round" stroke-linejoin="round" stroke-width="4" d="M-1086,2005v599c0,8.28426 6.71574,15 15,15h91.5M-934.5,2619h693.5c4.41827,0 8,3.58173 8,8v4"/><polygon fill="#C3CFD9" stroke="#C3CFD9" stroke-linecap="round" stroke-linejoin="round" stroke-width="2" points="-227.459 2627.908 -233 2635 -238.541 2627.908"/><text width="37" height="24" x="-975.5" y="2607" fill="#788896" font-family="DIN Next, sans-serif" font-size="18" font-style="normal" font-weight="normal" xml:space="preserve"><tspan x="-957" y="2625" text-anchor="middle" style="white-space:pre">seed</tspan></text></g></g><g><g><path fill="none" stroke="#C3CFD9" stroke-linecap="round" stroke-linejoin="round" stroke-width="4" d="M-151,2520.5v14.5M-151,2563v68"/><polygon fill="#C3CFD9" stroke="#C3CFD9" stroke-linecap="round" stroke-linejoin="round" stroke-width="2" points="-145.459 2627.908 -151 2635 -156.541 2627.908"/><text width="37" height="24" x="-169.5" y="2537" fill="#788896" font-family="DIN Next, sans-serif" font-size="18" font-style="normal" font-weight="normal" xml:space="preserve"><tspan x="-151" y="2555" text-anchor="middle" style="white-space:pre">seed</tspan></text></g></g><g><g class="content"><g><g><g><g><text fill="#293845"><tspan x="-301.361" y="1608" font-family="DIN Next, sans-serif" font-size="60" font-style="normal" font-weight="normal">Associated Token Accounts</tspan></text></g></g></g></g></g></g><g><g><path fill="none" stroke="#730FC3" stroke-linecap="round" stroke-linejoin="round" stroke-width="4" d="M-1240.28108,1614.08306c147.3523,280.63206 295.72397,560.44369 566.28108,741.91694c271.03984,181.79703 664.70151,264.90446 1059.16925,347.36315"/></g></g><g><g><g><g><rect width="240" height="107" x="-1153" y="1890" fill="#d1efec" stroke="#1AAE9F" stroke-width="2"/></g><g><g><g class="content"><g><g><g><g><text fill="#293845"><tspan x="-1085" y="1963.5" font-family="DIN Next, sans-serif" font-size="18" font-style="normal" font-weight="normal">Mint address</tspan></text></g></g></g></g></g></g></g></g><g><g class="content"><g><g><g><g><text fill="#293845"><tspan x="-1139" y="1919.5" font-family="DIN Next, sans-serif" font-size="18" font-style="normal" font-weight="normal">USDC MINT</tspan></text></g></g></g></g></g></g><g><g><g transform="translate(-1139 1939) rotate(0 18 18)"><svg id="s9f6d2e38-63e4-4be3-887d-97f8501f37b2" width="36" height="36" data-icon-color="#207868" data-icon-name="bank" data-icon-partition="g48-0" viewBox="0 0 48 48"><style>#s9f6d2e38-63e4-4be3-887d-97f8501f37b2 [fill=&apos;#444&apos;],#s9f6d2e38-63e4-4be3-887d-97f8501f37b2 [fill=&apos;#444444&apos;]{fill:#207868}#s9f6d2e38-63e4-4be3-887d-97f8501f37b2 [stroke=&apos;#444&apos;],#s9f6d2e38-63e4-4be3-887d-97f8501f37b2 [stroke=&apos;#444444&apos;]{stroke:#207868}</style><g><path fill="#444" d="M45,40H43V23H41V40H37V23H35V40H31V23H29V40H25V23H23V40H19V23H17V40H13V23H11V40H7V23H5V40H3a1,1,0,0,0-1,1v4a1,1,0,0,0,1,1H45a1,1,0,0,0,1-1V41A1,1,0,0,0,45,40Z"/><path fill="#444" d="M45.5,14.132l-21-12a1,1,0,0,0-.992,0l-21,12A1,1,0,0,0,2,15v5a1,1,0,0,0,1,1H45a1,1,0,0,0,1-1V15A1,1,0,0,0,45.5,14.132ZM24,16a3,3,0,1,1,3-3A3,3,0,0,1,24,16Z" data-color="color-2"/></g></svg></g></g></g></g></g><g><g><g><g class="content"><g><g><g><g><text fill="#293845"><tspan x="-1083" y="1871.5" font-family="DIN Next, sans-serif" font-size="18" font-style="normal" font-weight="normal">ADDRESS</tspan></text></g></g></g></g></g></g><g><g><ellipse cx="-1098" cy="1865" fill="#d1efec" stroke="#1AAE9F" stroke-width="2" rx="11" ry="11"/></g></g></g></g><g><g><g><g class="content"><g><g><g><g><text fill="#293845"><tspan x="-905" y="2141.5" font-family="DIN Next, sans-serif" font-size="18" font-style="normal" font-weight="normal">ADDRESS</tspan></text></g></g></g></g></g></g><g><g><ellipse cx="-920" cy="2135" fill="#e3cff3" stroke="#730FC3" stroke-width="2" rx="11" ry="11"/></g></g></g></g><g><g><g><g><g><g><rect width="240" height="104.5" x="-930.5" y="2153.5" fill="#f2d6f6" stroke="#BD34D1" stroke-width="2"/></g></g><g><g class="content"><g><g><g><g><text fill="#293845"><tspan x="-866" y="2230.5" font-family="DIN Next, sans-serif" font-size="27" font-style="normal" font-weight="normal">◎15 SOL</tspan></text></g></g></g></g></g></g><g><g class="content"><g><g><g><g><text fill="#293845"><tspan x="-913" y="2188.5" font-family="DIN Next, sans-serif" font-size="18" font-style="normal" font-weight="normal">Alice’s wallet</tspan></text></g></g></g></g></g></g><g><g><g transform="translate(-918.5 2203.5) rotate(0 18 18)"><svg id="sfc33e9dd-7707-4ef2-aa95-2d9dbbc11f05" width="36" height="36" data-icon-color="#BD34D1" data-icon-name="single-02" data-icon-partition="g48-8" viewBox="0 0 48 48"><style>#sfc33e9dd-7707-4ef2-aa95-2d9dbbc11f05 [fill=&apos;#444&apos;],#sfc33e9dd-7707-4ef2-aa95-2d9dbbc11f05 [fill=&apos;#444444&apos;]{fill:#bd34d1}#sfc33e9dd-7707-4ef2-aa95-2d9dbbc11f05 [stroke=&apos;#444&apos;],#sfc33e9dd-7707-4ef2-aa95-2d9dbbc11f05 [stroke=&apos;#444444&apos;]{stroke:#bd34d1}</style><g><path fill="#444" d="M30,29H18c-7.168,0-13,5.832-13,13v2c0,0.435,0.281,0.82,0.695,0.953 C5.957,45.036,12.229,47,24,47s18.043-1.964,18.305-2.047C42.719,44.82,43,44.435,43,44v-2C43,34.832,37.168,29,30,29z"/><path fill="#444" d="M24,25c6.195,0,11-6.988,11-13c0-6.065-4.935-11-11-11S13,5.935,13,12C13,18.012,17.805,25,24,25z" data-color="color-2"/></g></svg></g></g></g></g></g></g></g><g><g><g><g class="content"><g><g><g><g><text fill="#293845"><tspan x="-278" y="2537.5" font-family="DIN Next, sans-serif" font-size="18" font-style="normal" font-weight="normal">ADDRESS</tspan></text></g></g></g></g></g></g><g><g><ellipse cx="-293" cy="2531" fill="#e3cff3" stroke="#730FC3" stroke-width="2" rx="11" ry="11"/></g></g></g></g><g><g><path fill="none" stroke="#C3CFD9" stroke-linecap="round" stroke-linejoin="round" stroke-width="4" d="M-815,2266v43M-815,2337v39"/><polygon fill="#C3CFD9" stroke="#C3CFD9" stroke-linecap="round" stroke-linejoin="round" stroke-width="2" points="-809.459 2372.908 -815 2380 -820.541 2372.908"/><text width="37" height="24" x="-833.5" y="2311" fill="#788896" font-family="DIN Next, sans-serif" font-size="18" font-style="normal" font-weight="normal" xml:space="preserve"><tspan x="-815" y="2329" text-anchor="middle" style="white-space:pre">seed</tspan></text></g></g><g><g><g><g><g><g><g><g><rect width="246" height="160" x="-1361" y="1669" fill="#e3cff3" stroke="#730FC3" stroke-width="2"/></g></g><g><g class="content"><g><g><g><g><text fill="#293845"><tspan x="-1345" y="1698.5" font-family="DIN Next, sans-serif" font-size="18" font-style="normal" font-weight="normal">Associated token</tspan></text></g></g></g></g><g><g><g><g><text fill="#293845"><tspan x="-1345" y="1722.5" font-family="DIN Next, sans-serif" font-size="18" font-style="normal" font-weight="normal">account program</tspan></text></g></g></g></g></g></g></g></g><g><g><g transform="translate(-1341 1755) rotate(0 21.45 21.45)"><svg id="sddbff55b-490a-4820-8ba1-0050fc43e50c" width="42.9" height="42.9" data-icon-color="#730FC3" data-icon-name="cogwheel" data-icon-partition="g12-1" viewBox="0 0 12 12"><style>#sddbff55b-490a-4820-8ba1-0050fc43e50c [fill=&apos;#444&apos;],#sddbff55b-490a-4820-8ba1-0050fc43e50c [fill=&apos;#444444&apos;]{fill:#730fc3}#sddbff55b-490a-4820-8ba1-0050fc43e50c [stroke=&apos;#444&apos;],#sddbff55b-490a-4820-8ba1-0050fc43e50c [stroke=&apos;#444444&apos;]{stroke:#730fc3}</style><g><path fill="#444" d="M11.555,5l-1.486-.165a4.223,4.223,0,0,0-.37-.893l.934-1.168a.5.5,0,0,0-.037-.666L9.889,1.4a.5.5,0,0,0-.666-.037L8.055,2.3a4.223,4.223,0,0,0-.893-.37L7,.445A.5.5,0,0,0,6.5,0h-1A.5.5,0,0,0,5,.445L4.838,1.931a4.223,4.223,0,0,0-.893.37L2.777,1.367a.5.5,0,0,0-.666.037L1.4,2.111a.5.5,0,0,0-.037.666L2.3,3.945a4.223,4.223,0,0,0-.37.893L.445,5A.5.5,0,0,0,0,5.5v1A.5.5,0,0,0,.445,7l1.486.165a4.223,4.223,0,0,0,.37.893L1.367,9.223a.5.5,0,0,0,.037.666l.707.707a.5.5,0,0,0,.666.037L3.945,9.7a4.223,4.223,0,0,0,.893.37L5,11.555A.5.5,0,0,0,5.5,12h1a.5.5,0,0,0,.5-.445l.165-1.486a4.223,4.223,0,0,0,.893-.37l1.168.934a.5.5,0,0,0,.666-.037l.707-.707a.5.5,0,0,0,.037-.666L9.7,8.055a4.223,4.223,0,0,0,.37-.893L11.555,7A.5.5,0,0,0,12,6.5v-1A.5.5,0,0,0,11.555,5ZM6,8A2,2,0,1,1,8,6,2,2,0,0,1,6,8Z"/></g></svg></g></g></g></g></g></g></g><g><g><g><g class="content"><g><g><g><g><text fill="#293845"><tspan x="-1213" y="1650.5" font-family="DIN Next, sans-serif" font-size="18" font-style="normal" font-weight="normal">ADDRESS</tspan></text></g></g></g></g></g></g><g><g><ellipse cx="-1228" cy="1644" fill="#e3cff3" stroke="#730FC3" stroke-width="2" rx="11" ry="11"/></g></g></g></g><g><g><path fill="none" stroke="#C3CFD9" stroke-linecap="round" stroke-linejoin="round" stroke-width="4" d="M-1343,1837v809c0,8.28426 6.71574,15 15,15h62M-1176,2661h890"/><polygon fill="#C3CFD9" stroke="#C3CFD9" stroke-linecap="round" stroke-linejoin="round" stroke-width="2" points="-289.092 2655.459 -282 2661 -289.092 2666.541"/><text width="82" height="24" x="-1262" y="2649" fill="#788896" font-family="DIN Next, sans-serif" font-size="18" font-style="normal" font-weight="normal" xml:space="preserve"><tspan x="-1221" y="2667" text-anchor="middle" style="white-space:pre">programId</tspan></text></g></g><g><g><path fill="none" stroke="#C3CFD9" stroke-linecap="round" stroke-linejoin="round" stroke-width="4" d="M-1226,1837l0,381M-1226,2246v147c0,8.28426 6.71574,15 15,15h207"/><polygon fill="#C3CFD9" stroke="#C3CFD9" stroke-linecap="round" stroke-linejoin="round" stroke-width="2" points="-1007.092 2402.459 -1000 2408 -1007.092 2413.541"/><text width="82" height="24" x="-1267" y="2220" fill="#788896" font-family="DIN Next, sans-serif" font-size="18" font-style="normal" font-weight="normal" xml:space="preserve"><tspan x="-1226" y="2238" text-anchor="middle" style="white-space:pre">programId</tspan></text></g></g><g><g><rect width="233" height="36" x="-274" y="2643" fill="#fff" rx="3" ry="3"/><rect width="233" height="36" x="-274" y="2643" fill="none" stroke="#C3CFD9" stroke-linecap="round" stroke-linejoin="round" stroke-width="2" rx="3" ry="3"/><g class="content"><g><g><g><g><text fill="#293845"><tspan x="-243.54" y="2667.5" font-family="DIN Next, sans-serif" font-size="18" font-style="normal" font-weight="normal">findProgramAddress()</tspan></text></g></g></g></g></g></g></g><g><g><line x1="-164" x2="-164" y1="2692" y2="2715" fill="none" stroke="#C3CFD9" stroke-linecap="round" stroke-linejoin="round" stroke-width="4"/><polygon fill="#C3CFD9" stroke="#C3CFD9" stroke-linecap="round" stroke-linejoin="round" stroke-width="2" points="-158.459 2711.908 -164 2719 -169.541 2711.908"/></g></g><g><g><rect width="233" height="36" x="-992" y="2388" fill="#fff" rx="3" ry="3"/><rect width="233" height="36" x="-992" y="2388" fill="none" stroke="#C3CFD9" stroke-linecap="round" stroke-linejoin="round" stroke-width="2" rx="3" ry="3"/><g class="content"><g><g><g><g><text fill="#293845"><tspan x="-961.54" y="2412.5" font-family="DIN Next, sans-serif" font-size="18" font-style="normal" font-weight="normal">findProgramAddress()</tspan></text></g></g></g></g></g></g></g><g><g><line x1="-882" x2="-882" y1="2432" y2="2451" fill="none" stroke="#C3CFD9" stroke-linecap="round" stroke-linejoin="round" stroke-width="4"/><polygon fill="#C3CFD9" stroke="#C3CFD9" stroke-linecap="round" stroke-linejoin="round" stroke-width="2" points="-876.459 2447.908 -882 2455 -887.541 2447.908"/></g></g></g></g></svg>