<svg xmlns="http://www.w3.org/2000/svg" viewBox="0 0 500 350"><rect width="500" height="350" fill="#fff"/><text x="250" y="25" font-family="Arial, sans-serif" font-size="20" font-weight="bold" text-anchor="middle">Uniswap v3</text><text x="250" y="45" font-family="Arial, sans-serif" font-size="14" text-anchor="middle">(Concentrated Liquidity)</text><line x1="60" x2="60" y1="60" y2="280" stroke="#000" stroke-width="2"/><text x="25" y="170" font-family="Arial, sans-serif" font-size="14" text-anchor="middle" transform="rotate(-90, 25, 170)">Liquidity</text><line x1="60" x2="460" y1="280" y2="280" stroke="#000" stroke-width="2"/><text x="450" y="300" font-family="Arial, sans-serif" font-size="12" text-anchor="middle">Price</text><g fill="#87CEEB" stroke="#4A90D9" stroke-width="1"><rect width="20" height="15" x="70" y="265"/><rect width="20" height="22" x="90" y="258"/><rect width="20" height="32" x="110" y="248"/><rect width="20" height="45" x="130" y="235"/><rect width="20" height="62" x="150" y="218"/><rect width="20" height="82" x="170" y="198"/><rect width="20" height="105" x="190" y="175"/><rect width="20" height="132" x="210" y="148"/><rect width="20" height="162" x="230" y="118" fill="#90EE90" stroke="#228B22"/><rect width="20" height="180" x="250" y="100" fill="#90EE90" stroke="#228B22"/><rect width="20" height="172" x="270" y="108" fill="#90EE90" stroke="#228B22"/><rect width="20" height="152" x="290" y="128" fill="#90EE90" stroke="#228B22"/><rect width="20" height="125" x="310" y="155"/><rect width="20" height="100" x="330" y="180"/><rect width="20" height="78" x="350" y="202"/><rect width="20" height="58" x="370" y="222"/><rect width="20" height="40" x="390" y="240"/><rect width="20" height="28" x="410" y="252"/><rect width="20" height="18" x="430" y="262"/></g><path fill="none" stroke="#333" stroke-width="2" d="M 80 265 Q 120 260 160 240 Q 200 200 240 130 Q 260 100 280 110 Q 320 140 360 200 Q 400 250 440 268"/><line x1="230" x2="230" y1="280" y2="295" stroke="#228B22" stroke-dasharray="4 2" stroke-width="1"/><text x="230" y="310" font-family="Arial, sans-serif" font-size="12" text-anchor="middle">pa</text><line x1="310" x2="310" y1="280" y2="295" stroke="#228B22" stroke-dasharray="4 2" stroke-width="1"/><text x="310" y="310" font-family="Arial, sans-serif" font-size="12" text-anchor="middle">pb</text><circle cx="290" cy="128" r="4" fill="#4A90D9"/><text x="380" y="95" font-family="Arial, sans-serif" font-size="11" font-style="italic">Frequency Distribution Curve</text><text x="435" y="110" font-family="Arial, sans-serif" font-size="13" font-style="italic">L̂(p)</text><path fill="none" stroke="#000" stroke-width="1" d="M 355 100 Q 330 115 295 125"/></svg>