<svg xmlns="http://www.w3.org/2000/svg" viewBox="0 0 500 350"><rect width="500" height="350" fill="#fff"/><text x="250" y="30" font-family="Arial, sans-serif" font-size="20" font-weight="bold" text-anchor="middle">Uniswap v1 &amp; v2</text><line x1="60" x2="60" y1="50" y2="280" stroke="#000" stroke-width="2"/><text x="25" y="165" font-family="Arial, sans-serif" font-size="14" text-anchor="middle" transform="rotate(-90, 25, 165)">Liquidity</text><line x1="60" x2="460" y1="280" y2="280" stroke="#000" stroke-width="2"/><g fill="#87CEEB" stroke="#4A90D9" stroke-width="1"><rect width="25" height="100" x="70" y="180"/><rect width="25" height="100" x="95" y="180"/><rect width="25" height="100" x="120" y="180"/><rect width="25" height="100" x="145" y="180"/><rect width="25" height="100" x="170" y="180"/><rect width="25" height="100" x="195" y="180"/><rect width="25" height="100" x="220" y="180"/><rect width="25" height="100" x="245" y="180" fill="#90EE90" stroke="#228B22"/><rect width="25" height="100" x="270" y="180" fill="#90EE90" stroke="#228B22"/><rect width="25" height="100" x="295" y="180"/><rect width="25" height="100" x="320" y="180"/><rect width="25" height="100" x="345" y="180"/><rect width="25" height="100" x="370" y="180"/><rect width="25" height="100" x="395" y="180"/><rect width="25" height="100" x="420" y="180"/></g><line x1="70" x2="445" y1="180" y2="180" stroke="#333" stroke-width="2"/><line x1="245" x2="245" y1="280" y2="290" stroke="#000" stroke-width="1"/><text x="245" y="305" font-family="Arial, sans-serif" font-size="12" text-anchor="middle">pa</text><line x1="295" x2="295" y1="280" y2="290" stroke="#000" stroke-width="1"/><text x="295" y="305" font-family="Arial, sans-serif" font-size="12" text-anchor="middle">pb</text><circle cx="245" cy="180" r="5" fill="#000"/><circle cx="295" cy="180" r="5" fill="#000"/><text x="150" y="130" font-family="Arial, sans-serif" font-size="12" font-style="italic">Active Liquidity</text><path fill="none" stroke="#000" stroke-width="1" d="M 200 135 Q 220 160 245 175"/><text x="320" y="150" font-family="Arial, sans-serif" font-size="12" font-style="italic">Lazy Liquidity</text><path fill="none" stroke="#000" stroke-width="1" d="M 340 155 Q 350 170 360 180"/></svg>